<svg width="34" height="37" viewBox="0 0 34 37" fill="none" xmlns="http://www.w3.org/2000/svg">
<rect x="6.5" y="8.5" width="21" height="21" rx="10.5" stroke="#30C7DC" stroke-width="7"/>
<path d="M26.6875 18.5C26.6875 13.1875 22.3125 8.8125 17 8.8125C11.6484 8.8125 7.3125 13.1875 7.3125 18.5C7.3125 23.8516 11.6484 28.1875 17 28.1875C22.3125 28.1875 26.6875 23.8516 26.6875 18.5ZM17 20.4531C17.9766 20.4531 18.7969 21.2734 18.7969 22.25C18.7969 23.2656 17.9766 24.0469 17 24.0469C15.9844 24.0469 15.2031 23.2656 15.2031 22.25C15.2031 21.2734 15.9844 20.4531 17 20.4531ZM15.2812 14.0078C15.2422 13.7344 15.4766 13.5 15.75 13.5H18.2109C18.4844 13.5 18.7188 13.7344 18.6797 14.0078L18.4062 19.3203C18.3672 19.5938 18.1719 19.75 17.9375 19.75H16.0234C15.7891 19.75 15.5938 19.5938 15.5547 19.3203L15.2812 14.0078Z" fill="#30C7DC"/>
</svg>
