<svg width="30" height="37" viewBox="0 0 30 37" fill="none" xmlns="http://www.w3.org/2000/svg">
<rect x="4" y="8" width="22" height="22" rx="11" stroke="#45AAF2" stroke-width="6"/>
<path d="M24.6875 18.5C24.6875 13.1875 20.3125 8.8125 15 8.8125C9.64844 8.8125 5.3125 13.1875 5.3125 18.5C5.3125 23.8516 9.64844 28.1875 15 28.1875C20.3125 28.1875 24.6875 23.8516 24.6875 18.5ZM15 20.4531C15.9766 20.4531 16.7969 21.2734 16.7969 22.25C16.7969 23.2656 15.9766 24.0469 15 24.0469C13.9844 24.0469 13.2031 23.2656 13.2031 22.25C13.2031 21.2734 13.9844 20.4531 15 20.4531ZM13.2812 14.0078C13.2422 13.7344 13.4766 13.5 13.75 13.5H16.2109C16.4844 13.5 16.7188 13.7344 16.6797 14.0078L16.4062 19.3203C16.3672 19.5938 16.1719 19.75 15.9375 19.75H14.0234C13.7891 19.75 13.5938 19.5938 13.5547 19.3203L13.2812 14.0078Z" fill="#45AAF2"/>
</svg>
